# xmcd
#
# Track frame offsets:
#	150
#	16670
#	34360
#	46726
#	60743
#	77893
#	94079
#	108175
#	123285
#	141709
#	155054
#	172800
#	186850
#	204019
#	214815
#	229446
#	243032
#	259369
#	269078
#
# Disc length: 3773 seconds
#
# Revision: 0
# Processed by: cddbd v1.5.2PL0 Copyright (c) Steve Scherf et al.
# Submitted via: EasyCDDAExtractor 11.5.0.1
#
DISCID=0d0ebb13
DTITLE=Various Artist - NCT 026
DYEAR=2001
DGENRE=Country
TTITLE0=Faith Hill - There You'll Be
TTITLE1=Sara Evans - I Could Not Ask For More
TTITLE2=Toby Keith - I'm Just Talkin' About Tonight
TTITLE3=Billy Gilman - She's My Girl
TTITLE4=Blake Shelton - Austin
TTITLE5=Tammy Cochran - Angels In Waiting
TTITLE6=Dwight Yoakam - I Want You To Want Me
TTITLE7=John Anderson - It Ain't Easy Being Me
TTITLE8=Ty England - I'd Rather Have Nothing
TTITLE9=Rhonda Vincent - I'm Not Over You
TTITLE10=Billy Ray Cyrus - Southern Rain
TTITLE11=Terri Clark - Getting There
TTITLE12=Jillian Dean Boggus - Keep Mom And Dad In Love
TTITLE13=Neal Coty - Right Down Through The Middle Of Us
TTITLE14=Daryle Singletary - Now And Again
TTITLE15=Scott Miller - Daddy Raised A Boy
TTITLE16=Jessica Andrews - Helplessly Hopelessly
TTITLE17=The Tractors - Can't Get Nowhere
TTITLE18=Charlie Daniels Band And Guests - Texas
EXTD=
EXTT0=
EXTT1=
EXTT2=
EXTT3=
EXTT4=
EXTT5=
EXTT6=
EXTT7=
EXTT8=
EXTT9=
EXTT10=
EXTT11=
EXTT12=
EXTT13=
EXTT14=
EXTT15=
EXTT16=
EXTT17=
EXTT18=
PLAYORDER=
